<svg width="472" height="451" viewBox="0 0 472 451" fill="none" xmlns="http://www.w3.org/2000/svg">
<rect y="0.450195" width="472" height="450" rx="20" fill="white"/>
<g clip-path="url(#clip0_395_435)">
<path d="M125.696 205.353C127.38 202.231 129.68 199.799 132.583 198.069C135.499 196.339 138.704 195.474 142.223 195.474C145.403 195.474 148.18 196.088 150.543 197.342C152.918 198.583 154.804 200.137 156.224 201.98V196.126H164.657V236.444H156.224V230.439C154.804 232.345 152.868 233.924 150.43 235.19C147.992 236.457 145.202 237.096 142.072 237.096C138.603 237.096 135.424 236.206 132.533 234.426C129.642 232.645 127.367 230.163 125.671 226.966C123.974 223.769 123.145 220.146 123.145 216.097C123.145 212.047 123.987 208.462 125.671 205.34L125.696 205.353ZM154.527 209.001C153.383 206.957 151.875 205.39 150.015 204.325C148.155 203.246 146.157 202.72 143.995 202.72C141.833 202.72 139.835 203.234 137.987 204.3C136.127 205.34 134.619 206.882 133.475 208.913C132.319 210.932 131.754 213.339 131.754 216.109C131.754 218.88 132.319 221.325 133.475 223.431C134.619 225.525 136.14 227.129 138.025 228.22C139.91 229.323 141.909 229.875 144.008 229.875C146.106 229.875 148.168 229.336 150.028 228.27C151.888 227.192 153.396 225.625 154.54 223.544C155.683 221.463 156.261 219.043 156.261 216.26C156.261 213.477 155.683 211.07 154.54 209.013L154.527 209.001Z" fill="#1F0172"/>
<path d="M172.789 205.353C174.473 202.231 176.773 199.799 179.676 198.069C182.592 196.339 185.822 195.474 189.404 195.474C192.043 195.474 194.644 196.038 197.208 197.191C199.772 198.332 201.821 199.862 203.329 201.755V182.297H211.762V236.444H203.329V230.376C201.959 232.319 200.061 233.937 197.648 235.203C195.235 236.469 192.445 237.109 189.328 237.109C185.809 237.109 182.592 236.218 179.688 234.438C176.773 232.658 174.485 230.176 172.801 226.979C171.117 223.782 170.275 220.159 170.275 216.109C170.275 212.06 171.117 208.474 172.801 205.353H172.789ZM201.62 209.001C200.476 206.957 198.968 205.39 197.108 204.325C195.248 203.246 193.249 202.72 191.088 202.72C188.926 202.72 186.928 203.234 185.08 204.3C183.22 205.34 181.712 206.882 180.568 208.913C179.412 210.932 178.846 213.339 178.846 216.109C178.846 218.88 179.412 221.325 180.568 223.431C181.712 225.524 183.233 227.129 185.118 228.22C187.003 229.323 189.001 229.875 191.1 229.875C193.199 229.875 195.26 229.336 197.12 228.27C198.98 227.192 200.489 225.625 201.632 223.544C202.776 221.463 203.354 219.043 203.354 216.26C203.354 213.477 202.776 211.069 201.632 209.013L201.62 209.001Z" fill="#1F0172"/>
<path d="M235.755 228.972L247.205 196.125H256.078L240.669 236.444H230.703L215.37 196.125H224.318L235.768 228.972H235.755Z" fill="#1F0172"/>
<path d="M259.483 205.353C261.168 202.231 263.468 199.799 266.371 198.069C269.287 196.339 272.491 195.474 276.01 195.474C279.19 195.474 281.968 196.088 284.331 197.342C286.706 198.583 288.591 200.137 290.011 201.98V196.126H298.445V236.444H290.011V230.439C288.591 232.345 286.656 233.924 284.217 235.19C281.779 236.457 278.989 237.096 275.86 237.096C272.391 237.096 269.211 236.206 266.32 234.426C263.43 232.645 261.155 230.163 259.458 226.966C257.762 223.769 256.932 220.146 256.932 216.097C256.932 212.047 257.774 208.462 259.458 205.34L259.483 205.353ZM288.315 209.001C287.171 206.957 285.663 205.39 283.803 204.325C281.943 203.246 279.944 202.72 277.783 202.72C275.621 202.72 273.623 203.234 271.775 204.3C269.915 205.34 268.407 206.882 267.263 208.913C266.107 210.932 265.541 213.339 265.541 216.109C265.541 218.88 266.107 221.325 267.263 223.431C268.407 225.525 269.928 227.129 271.813 228.22C273.698 229.323 275.696 229.875 277.795 229.875C279.894 229.875 281.955 229.336 283.815 228.27C285.675 227.192 287.184 225.625 288.327 223.544C289.471 221.463 290.049 219.043 290.049 216.26C290.049 213.477 289.471 211.07 288.327 209.013L288.315 209.001Z" fill="#1F0172"/>
<path d="M335.772 197.442C338.285 198.758 340.258 200.701 341.679 203.296C343.099 205.879 343.803 209.001 343.803 212.662V236.444H335.508V213.903C335.508 210.292 334.603 207.521 332.793 205.603C330.983 203.673 328.52 202.707 325.39 202.707C322.261 202.707 319.785 203.673 317.95 205.603C316.115 207.534 315.198 210.292 315.198 213.903V236.444H306.84V196.125H315.198V200.739C316.568 199.072 318.315 197.78 320.439 196.853C322.563 195.925 324.825 195.461 327.225 195.461C330.405 195.461 333.245 196.125 335.772 197.442Z" fill="#1F0172"/>
<path d="M351.544 205.302C353.228 202.156 355.566 199.723 358.545 198.018C361.523 196.313 364.954 195.461 368.813 195.461C373.702 195.461 377.749 196.614 380.954 198.934C384.146 201.253 386.32 204.55 387.439 208.85H378.415C377.686 206.857 376.504 205.29 374.896 204.174C373.274 203.046 371.251 202.494 368.813 202.494C365.382 202.494 362.667 203.698 360.631 206.117C358.608 208.537 357.59 211.909 357.59 216.247C357.59 220.585 358.608 223.982 360.631 226.427C362.654 228.872 365.382 230.075 368.813 230.075C373.652 230.075 376.856 227.957 378.415 223.707H387.439C386.27 227.806 384.058 231.066 380.84 233.473C377.61 235.892 373.601 237.096 368.813 237.096C364.954 237.096 361.523 236.231 358.545 234.501C355.553 232.771 353.228 230.326 351.544 227.179C349.86 224.045 349.018 220.397 349.018 216.235C349.018 212.072 349.86 208.449 351.544 205.29V205.302Z" fill="#1F0172"/>
<path d="M401.54 182.297V236.444H393.183V182.297H401.54Z" fill="#1F0172"/>
<path d="M446.207 196.125L421.41 255.387H412.763L420.983 235.78L405.072 196.125H414.385L425.759 226.853L437.573 196.125H446.22H446.207Z" fill="#1F0172"/>
<path d="M104.758 173.609C100.321 170.149 94.4645 169.435 89.4624 171.741L66.1611 182.511C66.0983 182.536 66.0229 182.561 65.96 182.586L26.1317 201.028C20.6898 203.535 17.51 209.039 18.063 215.031C18.6412 221.35 23.04 226.49 29.2612 228.095L40.3965 231.492C42.797 232.106 44.8331 233.699 46.0145 235.88L50.9789 246.21C54.0329 251.852 60.0782 254.886 66.3748 253.921C70.1201 253.356 73.3249 251.426 75.4867 248.605C76.7686 246.938 77.6735 244.957 78.1008 242.775L78.6035 240.18C81.7456 242.587 85.7422 243.703 89.8646 243.064C93.6098 242.5 96.8147 240.569 98.9764 237.748C100.258 236.081 101.163 234.1 101.591 231.918L110.225 187.964C111.281 182.573 109.182 177.07 104.758 173.609ZM64.1125 243.277C62.5415 243.515 60.4426 242.988 59.2612 240.82L52.1728 226.565C50.9914 224.384 48.9554 222.792 46.5549 222.177L31.0961 217.664C28.6956 217.05 27.6776 215.144 27.5394 213.577C27.4765 212.887 27.5268 211.822 28.2306 210.907C28.57 210.468 29.0475 210.067 29.7137 209.753L41.5654 204.275C42.1686 210.568 46.5423 215.658 52.7384 217.263L60.5935 219.657L62.6546 209.177L54.5985 206.82C52.1854 206.205 51.18 204.3 51.0291 202.733C50.9663 202.043 51.0291 200.977 51.7204 200.062C52.0597 199.623 52.5373 199.222 53.2034 198.909L69.6802 191.286C71.867 190.359 73.6894 191.575 74.2173 191.976C74.7451 192.39 76.4293 193.919 75.9517 196.326L67.3174 240.281C66.8775 242.55 65.118 243.151 64.1125 243.302M99.4414 185.444L90.8072 229.399C90.3547 231.668 88.5952 232.269 87.6023 232.42C86.0313 232.658 83.9324 232.132 82.751 229.963L81.2051 226.854L86.71 198.821C87.6777 193.894 85.981 188.892 82.3111 185.432L93.0317 180.467C95.2688 179.427 97.1666 180.705 97.6945 181.119C98.2223 181.533 99.9065 183.062 99.4289 185.469" fill="#713FFF"/>
</g>
<defs>
<clipPath id="clip0_395_435">
<rect width="428.208" height="85" fill="white" transform="translate(18 170.4)"/>
</clipPath>
</defs>
</svg>
